<svg width="67" height="59" viewBox="0 0 67 59" fill="none" xmlns="http://www.w3.org/2000/svg">
<g clip-path="url(#clip0_175_11)">
<path fill-rule="evenodd" clip-rule="evenodd" d="M33.5002 14.3513C23.9993 14.3513 16.2974 21.1335 16.2974 29.5C16.2974 37.8663 23.9993 44.6485 33.5002 44.6485C43.0009 44.6485 50.7027 37.8663 50.7027 29.5C50.7027 21.1335 43.0009 14.3513 33.5002 14.3513ZM33.5002 39.3332C27.3329 39.3332 22.3335 34.9307 22.3335 29.5C22.3335 24.0691 27.3329 19.6666 33.5002 19.6666C39.6672 19.6666 44.6667 24.0691 44.6667 29.5C44.6667 34.9307 39.6672 39.3332 33.5002 39.3332Z" fill="#687076"/>
<path d="M51.3822 17.2928C53.6024 17.2928 55.4022 15.7079 55.4022 13.7528C55.4022 11.7977 53.6024 10.2129 51.3822 10.2129C49.1621 10.2129 47.3622 11.7977 47.3622 13.7528C47.3622 15.7079 49.1621 17.2928 51.3822 17.2928Z" fill="#687076"/>
<path fill-rule="evenodd" clip-rule="evenodd" d="M33.5 0C24.4019 0 23.261 0.0339941 19.6879 0.177576C16.1223 0.320812 13.687 0.819432 11.5561 1.54875C9.35317 2.30261 7.48489 3.31137 5.62263 4.95139C3.76024 6.59129 2.6147 8.23649 1.75862 10.1763C0.93041 12.0527 0.364182 14.1972 0.201523 17.3371C0.0384726 20.4836 0 21.4882 0 29.5C0 37.5116 0.0384726 38.5162 0.201523 41.6626C0.364182 44.8025 0.93041 46.9471 1.75862 48.8234C2.6147 50.7633 3.76024 52.4085 5.62263 54.0486C7.48489 55.6885 9.35317 56.6973 11.5561 57.4511C13.687 58.1803 16.1223 58.6791 19.6879 58.8223C23.261 58.9658 24.4019 58.9998 33.5 58.9998C42.5979 58.9998 43.7387 58.9658 47.3118 58.8223C50.8775 58.6791 53.3128 58.1803 55.4435 57.4511C57.6464 56.6973 59.5147 55.6885 61.3772 54.0486C63.2395 52.4085 64.385 50.7633 65.2411 48.8234C66.0692 46.9471 66.6356 44.8025 66.7982 41.6626C66.9611 38.5162 66.9997 37.5116 66.9997 29.5C66.9997 21.4882 66.9611 20.4836 66.7982 17.3371C66.6356 14.1972 66.0692 12.0527 65.2411 10.1763C64.385 8.23649 63.2395 6.59129 61.3772 4.95139C59.5147 3.31137 57.6464 2.30261 55.4435 1.54875C53.3128 0.819432 50.8775 0.320812 47.3118 0.177576C43.7387 0.0339941 42.5979 0 33.5 0ZM33.5 5.31542C42.4448 5.31542 43.5043 5.34538 47.0367 5.48735C50.3029 5.6186 52.0767 6.09912 53.2571 6.50302C54.8208 7.03817 55.9368 7.67749 57.109 8.70976C58.2814 9.74203 59.0072 10.7249 59.615 12.1017C60.0737 13.1412 60.6194 14.7032 60.7685 17.5793C60.9296 20.6901 60.9637 21.6232 60.9637 29.5C60.9637 37.3767 60.9296 38.3098 60.7685 41.4204C60.6194 44.2966 60.0737 45.8586 59.615 46.8981C59.0072 48.275 58.2814 49.2577 57.109 50.29C55.9368 51.3224 54.8208 51.9616 53.2571 52.4967C52.0767 52.9008 50.3029 53.3813 47.0367 53.5124C43.5049 53.6544 42.4454 53.6845 33.5 53.6845C24.5543 53.6845 23.4951 53.6544 19.963 53.5124C16.6969 53.3813 14.9231 52.9008 13.7426 52.4967C12.179 51.9616 11.063 51.3224 9.89061 50.29C8.71837 49.2577 7.99237 48.275 7.38479 46.8981C6.92599 45.8586 6.38031 44.2966 6.23126 41.4204C6.07004 38.3098 6.03602 37.3767 6.03602 29.5C6.03602 21.6232 6.07004 20.6901 6.23126 17.5793C6.38031 14.7032 6.92599 13.1412 7.38479 12.1017C7.99237 10.7249 8.71837 9.74203 9.89061 8.70976C11.063 7.67749 12.179 7.03817 13.7426 6.50302C14.9231 6.09912 16.6969 5.6186 19.963 5.48735C23.4955 5.34538 24.5551 5.31542 33.5 5.31542Z" fill="#687076"/>
</g>
<defs>
<clipPath id="clip0_175_11">
<rect width="67" height="59" fill="white"/>
</clipPath>
</defs>
</svg>
