<svg width="59" height="59" viewBox="0 0 59 59" fill="none" xmlns="http://www.w3.org/2000/svg">
<g clip-path="url(#clip0_175_16)">
<path fill-rule="evenodd" clip-rule="evenodd" d="M30.132 46.4707H30.139C39.7737 46.4707 47.6152 38.6315 47.6192 28.996C47.621 24.3268 45.8044 19.9362 42.5041 16.6333C39.2038 13.3303 34.815 11.5102 30.146 11.5083C20.504 11.5083 12.6623 19.347 12.6585 28.9819C12.6573 32.2837 13.5813 35.4994 15.331 38.2818L15.7468 38.9428L13.9808 45.3912L20.5968 43.6562L21.2351 44.035C23.9189 45.6272 26.9953 46.4694 30.132 46.4707ZM36.1365 31.674C36.6183 31.8493 39.2018 33.1202 39.7273 33.3832C39.8297 33.4344 39.9255 33.4807 40.0143 33.5235C40.3811 33.7007 40.6288 33.8203 40.7345 33.9968C40.8658 34.2159 40.8658 35.2677 40.4281 36.4948C39.99 37.7219 37.8906 38.8419 36.881 38.9928C35.9756 39.1281 34.83 39.1844 33.5711 38.7847C32.8079 38.5424 31.8291 38.2193 30.5754 37.6781C25.6503 35.552 22.3215 30.7805 21.691 29.8768C21.6467 29.8133 21.6157 29.7688 21.5984 29.7458L21.5939 29.7398C21.3148 29.3674 19.4527 26.8827 19.4527 24.3115C19.4527 21.8915 20.6418 20.623 21.1891 20.0393C21.2266 19.9993 21.261 19.9626 21.2919 19.9289C21.7737 19.403 22.3428 19.2716 22.6932 19.2716C23.0436 19.2716 23.3942 19.2748 23.7004 19.29C23.7381 19.2919 23.7774 19.2917 23.818 19.2914C24.1242 19.2896 24.5061 19.2874 24.8827 20.1918C25.0274 20.5394 25.239 21.0543 25.4622 21.5976C25.9147 22.6987 26.4149 23.9162 26.5029 24.0923C26.6343 24.3552 26.7218 24.6621 26.5467 25.0127C26.5205 25.065 26.4963 25.1145 26.4731 25.1618C26.3414 25.4307 26.2447 25.6282 26.0212 25.8891C25.9336 25.9914 25.8431 26.1016 25.7526 26.2118C25.5716 26.4322 25.3906 26.6526 25.233 26.8094C24.9699 27.0713 24.696 27.3556 25.0025 27.8815C25.3091 28.4075 26.3638 30.1279 27.9259 31.5208C29.6055 33.0185 31.0652 33.6513 31.8049 33.972C31.9492 34.0346 32.066 34.0853 32.1518 34.1282C32.6773 34.3912 32.9838 34.3473 33.2903 33.9968C33.5968 33.6461 34.6039 32.4629 34.9543 31.937C35.3046 31.411 35.6548 31.4987 36.1365 31.674Z" fill="#687076"/>
<path fill-rule="evenodd" clip-rule="evenodd" d="M1.60765 8.05364C0 11.2088 0 15.3392 0 23.6V35.4C0 43.6608 0 47.7912 1.60765 50.9464C3.02179 53.7218 5.27825 55.9782 8.05364 57.3923C11.2088 59 15.3392 59 23.6 59H35.4C43.6608 59 47.7912 59 50.9464 57.3923C53.7218 55.9782 55.9782 53.7218 57.3923 50.9464C59 47.7912 59 43.6608 59 35.4V23.6C59 15.3392 59 11.2088 57.3923 8.05364C55.9782 5.27825 53.7218 3.02179 50.9464 1.60765C47.7912 0 43.6608 0 35.4 0H23.6C15.3392 0 11.2088 0 8.05364 1.60765C5.27825 3.02179 3.02179 5.27825 1.60765 8.05364ZM30.1389 7.95751C35.7649 7.95982 41.0454 10.1494 45.016 14.1234C48.9868 18.0973 51.1723 23.3796 51.1701 28.9973C51.1654 40.5895 41.7301 50.0216 30.1391 50.0216H30.1305C26.6105 50.0201 23.152 49.1375 20.0802 47.4626L8.93126 50.3861L11.9149 39.4913C10.0745 36.3032 9.10619 32.686 9.10769 28.9805C9.1123 17.3884 18.5469 7.95751 30.1389 7.95751Z" fill="#687076"/>
</g>
<defs>
<clipPath id="clip0_175_16">
<rect width="59" height="59" fill="white"/>
</clipPath>
</defs>
</svg>
